<?xml version="1.0" encoding="iso-8859-1"?>
<!-- Generator: Adobe Illustrator 19.0.0, SVG Export Plug-In . SVG Version: 6.00 Build 0)  -->
<svg version="1.1" id="Capa_1" xmlns="http://www.w3.org/2000/svg" xmlns:xlink="http://www.w3.org/1999/xlink" x="0px" y="0px"
	 viewBox="0 0 443.26 443.26" style="enable-background:new 0 0 443.26 443.26;" xml:space="preserve">
<g>
	<path style="fill:#010002;" d="M371.795,234.412V70.91c0-14.182-11.537-25.719-25.719-25.719H95.832
		c-14.182,0-25.719,11.537-25.719,25.719v163.502c0,14.182,11.537,25.719,25.719,25.719h250.244
		C360.258,260.132,371.795,248.594,371.795,234.412z M80.685,234.412V70.91c0-8.352,6.794-15.144,15.148-15.144h250.244
		c8.353,0,15.148,6.792,15.148,15.144v163.502c0,8.352-6.794,15.144-15.148,15.144H95.832
		C87.479,249.556,80.685,242.764,80.685,234.412z"/>
	<path style="fill:#010002;" d="M433.402,87.622h-34.616v-28.75c0-23.107-18.798-41.905-41.902-41.905H85.024
		c-23.104,0-41.902,18.798-41.902,41.905v28.75H9.862C4.423,87.622,0,92.046,0,97.485v72.35c0,5.437,4.423,9.862,9.862,9.862h33.26
		v168.216c0,17.66,10.997,32.771,26.488,38.928V417.1c0,5.069,4.124,9.193,9.191,9.193h49.373c5.067,0,9.191-4.124,9.191-9.193
		v-27.284h167.176V417.1c0,5.069,4.124,9.193,9.191,9.193h49.373c5.067,0,9.191-4.124,9.191-9.193v-30.259
		c15.492-6.157,26.488-21.268,26.488-38.928V179.696h34.616c5.435,0,9.858-4.424,9.858-9.862v-72.35
		C443.26,92.046,438.837,87.622,433.402,87.622z M382.925,342.294H312.16v-17.588h70.765V342.294z M58.984,324.554h70.765v17.59
		H58.984V324.554z M10.572,169.121V98.197h32.55v70.923H10.572z M126.794,415.718H80.182v-26.205
		c1.591,0.184,3.202,0.303,4.842,0.303h41.77V415.718z M361.726,415.718h-46.612v-25.902h41.77c1.64,0,3.25-0.119,4.842-0.303
		V415.718z M356.885,373.955H85.024c-12.713,0-23.312-9.167-25.576-21.235h72.771c4.466,0,8.102-3.636,8.102-8.104V322.08
		c0-4.466-3.636-8.102-8.102-8.102H58.984V58.871c0-14.361,11.683-26.044,26.04-26.044h271.861c14.357,0,26.04,11.683,26.04,26.044
		V314.13H309.69c-4.47,0-8.102,3.636-8.102,8.102v22.535c0,4.466,3.632,8.102,8.102,8.102h72.749
		C380.115,364.864,369.546,373.955,356.885,373.955z M432.688,169.121h-33.902V98.197h33.902V169.121z"/>
</g>
<g>
</g>
<g>
</g>
<g>
</g>
<g>
</g>
<g>
</g>
<g>
</g>
<g>
</g>
<g>
</g>
<g>
</g>
<g>
</g>
<g>
</g>
<g>
</g>
<g>
</g>
<g>
</g>
<g>
</g>
</svg>
