<?xml version="1.0" encoding="utf-8"?>
<!-- Generator: Adobe Illustrator 19.2.1, SVG Export Plug-In . SVG Version: 6.00 Build 0)  -->
<svg version="1.1" id="Capa_1" xmlns="http://www.w3.org/2000/svg" xmlns:xlink="http://www.w3.org/1999/xlink" x="0px" y="0px"
	 viewBox="0 0 424.9 424.9" style="enable-background:new 0 0 424.9 424.9;" xml:space="preserve">
<g>
	<path d="M329.6,134.5c-3.1,0-6.3,0.2-9.6,0.5c-18.3-23.9-46.6-37.7-77.1-37.3c-13.6-37.2-49.3-62.5-89.4-62.5
		c-52.6,0-95.3,42.8-95.3,95.3c0,3.7,0.2,7.4,0.7,11.1C23.3,156.2,0,190.6,0,229.8c0,52.6,42.8,95.3,95.3,95.3h234.3
		c52.6,0,95.3-42.8,95.3-95.3C424.9,177.2,382.2,134.5,329.6,134.5z M329.6,305H95.3c-41.5,0-75.2-33.7-75.2-75.2
		c0-33.2,21.3-62.1,53-71.9l8.8-2.7l-1.9-9c-1.1-5.2-1.7-10.5-1.7-15.7c0-41.5,33.7-75.2,75.2-75.2c33.8,0,63.6,22.8,72.5,55.5
		l2.2,8.2l8.5-0.9c2.5-0.3,5.1-0.4,7.6-0.4c25.2,0,48.6,12.6,62.6,33.6l3.6,5.4l6.4-1.1c4.6-0.8,8.7-1.1,12.6-1.1
		c41.5,0,75.2,33.7,75.2,75.2C404.8,271.2,371.1,305,329.6,305z M242.6,368.2H307v16.4h-64.3v5.1h-71.2v-5.1H92.1v-16.4h79.3V360
		h20.8v-20.6l29.7,0V360h20.8L242.6,368.2L242.6,368.2L242.6,368.2z"/>
</g>
<path d="M270.2,154.5c-2.1-2.1-5.5-2.1-7.7,0L158.1,258.8L108,209c-2.1-2.1-5.5-2.1-7.7,0c-2.1,2.1-2.1,5.5,0,7.7l53.6,53.6
	c0,0,0,0,0.2,0c0,0,0,0,0,0.2c2.1,2.1,5.5,2.1,7.7,0l108.4-108.3C272.3,160.1,272.3,156.6,270.2,154.5z"/>
</svg>
