<?xml version="1.0" encoding="utf-8"?>
<!-- Generator: Adobe Illustrator 19.2.1, SVG Export Plug-In . SVG Version: 6.00 Build 0)  -->
<svg version="1.1" id="Capa_1" xmlns="http://www.w3.org/2000/svg" xmlns:xlink="http://www.w3.org/1999/xlink" x="0px" y="0px"
	 viewBox="0 0 195.5 195.5" style="enable-background:new 0 0 195.5 195.5;" xml:space="preserve">
<style type="text/css">
	.st0{display:none;}
</style>
<g>
	<path d="M133.8,195.5H65.6V191H1.1v-19.5h64.5v-7.3H84v-18.3l31.4,0v18.3h18.5v7.3H197V191h-63.2V195.5z M70.6,190.5h58.3V186H192
		v-9.5h-63.2v-7.3h-18.5v-18.3l-21.4,0v18.3H70.6v7.3H6.1v9.5h64.5V190.5z"/>
</g>
<g>
	<path d="M156.2,37.6c0-0.1,0-0.1,0-0.2c0,0,0,0,0-0.1c0-0.1,0-0.1-0.1-0.2c0,0,0,0,0,0c0-0.1,0-0.1-0.1-0.2c0,0,0,0,0,0
		c0-0.1-0.1-0.1-0.1-0.2c0,0,0,0,0,0c0-0.1-0.1-0.1-0.1-0.2c0,0,0,0,0-0.1c0-0.1-0.1-0.1-0.1-0.1c0,0,0,0,0-0.1
		c0-0.1-0.1-0.1-0.1-0.2c0,0,0,0,0,0L120.2,0.8v0c-0.1-0.1-0.1-0.1-0.2-0.2c0,0,0,0,0,0c-0.1,0-0.1-0.1-0.2-0.1c0,0,0,0,0,0
		c-0.1,0-0.1-0.1-0.2-0.1c0,0,0,0,0,0c-0.1,0-0.1-0.1-0.2-0.1c0,0,0,0,0,0c-0.1,0-0.2-0.1-0.2-0.1c0,0,0,0,0,0c-0.1,0-0.2,0-0.2-0.1
		c0,0,0,0,0,0c-0.1,0-0.1,0-0.2,0c0,0-0.1,0-0.1,0c0,0-0.1,0-0.1,0c0,0,0,0,0,0H46.2c-1.5,0-2.6,1.2-2.6,2.6v138
		c0,1.5,1.2,2.6,2.6,2.6h107.4c1.5,0,2.6-1.2,2.6-2.6V37.9l0,0v0c0,0,0,0,0,0C156.2,37.8,156.2,37.7,156.2,37.6z M147.2,35.3
		l-26.2,0L121,9L147.2,35.3z M150.9,138H48.9V5.3h66.8l0,32.6c0,0.7,0.3,1.4,0.8,1.9c0.5,0.5,1.2,0.8,1.9,0.8l32.6,0V138z"/>
	<path class="st0" d="M82.2,37c6.1,0,11-4.9,11-11s-4.9-11-11-11c-6.1,0-11,4.9-11,11C71.2,32.1,76.2,37,82.2,37z M82.2,20.3
		c3.1,0,5.7,2.6,5.7,5.7c0,3.1-2.6,5.7-5.7,5.7c-3.1,0-5.7-2.6-5.7-5.7C76.5,22.9,79.1,20.3,82.2,20.3z"/>
	<path class="st0" d="M69.9,57.1c1.5,0,2.6-1.2,2.6-2.6v-4.6c0-3,2.4-5.4,5.4-5.4h8.5c3,0,5.4,2.4,5.4,5.4v4.6
		c0,1.5,1.2,2.6,2.6,2.6c1.5,0,2.6-1.2,2.6-2.6v-4.6c0-5.9-4.8-10.7-10.7-10.7H78c-5.9,0-10.7,4.8-10.7,10.7v4.6
		C67.3,55.9,68.5,57.1,69.9,57.1z"/>
	<path d="M67.3,75.8c0,1.5,1.2,2.6,2.6,2.6h59.9c1.5,0,2.6-1.2,2.6-2.6c0-1.5-1.2-2.6-2.6-2.6H69.9C68.5,73.1,67.3,74.3,67.3,75.8z"
		/>
	<path d="M129.9,112.3H69.9c-1.5,0-2.6,1.2-2.6,2.6s1.2,2.6,2.6,2.6h59.9c1.5,0,2.6-1.2,2.6-2.6
		C132.5,113.4,131.3,112.3,129.9,112.3z"/>
	<path d="M129.9,92.7H69.9c-1.5,0-2.6,1.2-2.6,2.6c0,1.5,1.2,2.6,2.6,2.6h59.9c1.5,0,2.6-1.2,2.6-2.6
		C132.5,93.9,131.3,92.7,129.9,92.7z"/>
</g>
<path d="M107.5,18.9c-0.6-0.6-1.6-0.6-2.3,0l-31,30.9L59.4,35.1c-0.6-0.6-1.6-0.6-2.3,0s-0.6,1.6,0,2.3L73,53.3c0,0,0,0,0.1,0
	c0,0,0,0,0,0.1c0.6,0.6,1.6,0.6,2.3,0l32.2-32.1C108.2,20.6,108.2,19.6,107.5,18.9z"/>
</svg>
