<?xml version="1.0" encoding="iso-8859-1"?>
<!-- Generator: Adobe Illustrator 16.0.0, SVG Export Plug-In . SVG Version: 6.00 Build 0)  -->
<!DOCTYPE svg PUBLIC "-//W3C//DTD SVG 1.1//EN" "http://www.w3.org/Graphics/SVG/1.1/DTD/svg11.dtd">
<svg version="1.1" id="Capa_1" xmlns="http://www.w3.org/2000/svg" xmlns:xlink="http://www.w3.org/1999/xlink" x="0px" y="0px"
	 width="27.469px" height="27.469px" viewBox="0 0 27.469 27.469" style="enable-background:new 0 0 27.469 27.469;"
	 xml:space="preserve">
<g>
	<g>
		<rect x="1.414" y="20.953" width="0.319" height="0.16"/>
		<rect x="23.129" y="20.953" width="0.648" height="0.16"/>
		<rect x="10.165" y="20.953" width="0.647" height="0.16"/>
		<rect x="25.727" y="20.953" width="0.648" height="0.16"/>
		<rect x="11.46" y="20.953" width="0.648" height="0.16"/>
		<rect x="8.868" y="20.953" width="0.648" height="0.16"/>
		<rect x="21.832" y="20.953" width="0.648" height="0.16"/>
		<rect x="6.272" y="20.953" width="0.648" height="0.16"/>
		<rect x="7.57" y="20.953" width="0.648" height="0.16"/>
		<rect x="19.238" y="20.953" width="0.648" height="0.16"/>
		<rect x="20.536" y="20.953" width="0.647" height="0.16"/>
		<polygon points="13.404,20.953 12.868,20.953 12.868,20.327 12.706,20.327 12.706,20.969 12.757,20.969 12.757,21.113 
			13.404,21.113 		"/>
		<rect x="16.646" y="20.953" width="0.647" height="0.16"/>
		<rect x="15.35" y="20.953" width="0.648" height="0.16"/>
		<rect x="14.053" y="20.953" width="0.649" height="0.16"/>
		<rect x="17.941" y="20.953" width="0.648" height="0.16"/>
		<rect x="26.984" y="20.953" width="0.32" height="0.16"/>
		<rect x="1.662" y="14.639" width="0.319" height="0.162"/>
		<rect x="15.464" y="14.639" width="0.642" height="0.162"/>
		<rect x="14.18" y="14.639" width="0.645" height="0.162"/>
		<rect x="12.897" y="14.639" width="0.641" height="0.162"/>
		<rect x="11.613" y="14.639" width="0.643" height="0.162"/>
		<rect x="7.763" y="14.639" width="0.641" height="0.162"/>
		<rect x="18.031" y="14.639" width="0.642" height="0.162"/>
		<rect x="10.329" y="14.639" width="0.643" height="0.162"/>
		<rect x="16.749" y="14.639" width="0.644" height="0.162"/>
		<rect x="9.046" y="14.639" width="0.643" height="0.162"/>
		<rect x="19.316" y="14.639" width="0.642" height="0.162"/>
		<rect x="25.738" y="14.639" width="0.645" height="0.162"/>
		<rect x="2.621" y="14.639" width="0.645" height="0.162"/>
		<rect x="3.908" y="14.639" width="0.643" height="0.162"/>
		<rect x="24.452" y="14.639" width="0.644" height="0.162"/>
		<polygon points="23.811,14.639 23.668,14.639 23.668,13.304 21.035,13.304 21.035,14.639 20.6,14.639 20.6,14.801 21.035,14.801 
			21.035,15.938 23.668,15.938 23.668,14.801 23.811,14.801 		"/>
		<rect x="26.984" y="14.639" width="0.32" height="0.162"/>
		<rect x="9.999" y="8.701" width="0.655" height="0.161"/>
		<rect x="4.761" y="8.701" width="0.654" height="0.161"/>
		<rect x="2.138" y="8.701" width="0.656" height="0.161"/>
		<rect x="15.234" y="8.701" width="0.654" height="0.161"/>
		<rect x="3.45" y="8.701" width="0.654" height="0.161"/>
		<rect x="16.544" y="8.701" width="0.655" height="0.161"/>
		<rect x="8.688" y="8.701" width="0.655" height="0.161"/>
		<rect x="7.38" y="8.701" width="0.654" height="0.161"/>
		<rect x="19.162" y="8.701" width="0.656" height="0.161"/>
		<rect x="21.781" y="8.701" width="0.656" height="0.161"/>
		<rect x="17.854" y="8.701" width="0.654" height="0.161"/>
		<rect x="20.473" y="8.701" width="0.653" height="0.161"/>
		<rect x="26.984" y="8.701" width="0.32" height="0.161"/>
		<rect x="1.414" y="2.387" width="0.319" height="0.161"/>
		<polygon points="18.7,2.547 18.805,2.547 18.805,1.892 18.643,1.892 18.643,2.387 18.048,2.387 18.048,2.548 18.7,2.548 		"/>
		<rect x="20.657" y="2.387" width="0.653" height="0.161"/>
		<rect x="16.742" y="2.387" width="0.652" height="0.161"/>
		<rect x="11.523" y="2.387" width="0.652" height="0.161"/>
		<rect x="2.384" y="2.387" width="0.654" height="0.161"/>
		<rect x="15.438" y="2.387" width="0.652" height="0.161"/>
		<rect x="19.354" y="2.387" width="0.651" height="0.161"/>
		<rect x="21.963" y="2.387" width="0.652" height="0.161"/>
		<rect x="23.27" y="2.387" width="0.651" height="0.161"/>
		<rect x="8.914" y="2.387" width="0.652" height="0.161"/>
		<rect x="3.691" y="2.387" width="0.653" height="0.161"/>
		<rect x="10.22" y="2.387" width="0.652" height="0.161"/>
		<rect x="25.882" y="2.387" width="0.654" height="0.161"/>
		<rect x="4.998" y="2.387" width="0.652" height="0.161"/>
		<rect x="14.133" y="2.387" width="0.654" height="0.161"/>
		<rect x="7.608" y="2.387" width="0.652" height="0.161"/>
		<rect x="27.15" y="2.387" width="0.318" height="0.161"/>
		<rect x="6.393" y="17.682" width="0.161" height="0.647"/>
		<polygon points="6.393,2.77 6.554,2.77 6.554,2.548 6.955,2.548 6.955,2.387 6.554,2.387 6.554,2.121 6.393,2.121 6.393,2.387 
			6.304,2.387 6.304,2.548 6.393,2.548 		"/>
		<rect x="6.393" y="0.821" width="0.161" height="0.65"/>
		<rect x="6.393" y="11.199" width="0.161" height="0.648"/>
		<rect x="6.393" y="20.274" width="0.161" height="0.647"/>
		<rect x="6.393" y="12.495" width="0.161" height="0.648"/>
		<rect x="6.393" y="7.31" width="0.161" height="0.648"/>
		<rect x="6.393" y="3.42" width="0.161" height="0.648"/>
		<rect x="6.393" y="4.715" width="0.161" height="0.648"/>
		<polygon points="6.393,9.255 6.554,9.255 6.554,8.862 6.725,8.862 6.725,8.701 6.554,8.701 6.554,8.606 6.393,8.606 6.393,8.701 
			6.07,8.701 6.07,8.862 6.393,8.862 		"/>
		<rect x="6.393" y="22.869" width="0.161" height="0.648"/>
		<rect x="6.393" y="21.571" width="0.161" height="0.647"/>
		<rect x="6.393" y="9.902" width="0.161" height="0.648"/>
		<rect x="6.393" y="24.168" width="0.161" height="0.65"/>
		<rect x="6.393" y="16.385" width="0.161" height="0.647"/>
		<rect x="6.393" y="18.979" width="0.161" height="0.646"/>
		<rect x="6.393" y="6.013" width="0.161" height="0.648"/>
		<rect x="6.393" y="25.428" width="0.161" height="0.32"/>
		<rect x="12.706" y="0.318" width="0.162" height="0.105"/>
		<rect x="12.706" y="19.043" width="0.162" height="0.642"/>
		<rect x="12.706" y="17.758" width="0.162" height="0.643"/>
		<rect x="12.706" y="15.191" width="0.162" height="0.643"/>
		<rect x="12.706" y="16.474" width="0.162" height="0.643"/>
		<rect x="12.706" y="4.92" width="0.162" height="0.643"/>
		<rect x="12.706" y="6.204" width="0.162" height="0.642"/>
		<rect x="12.706" y="24.182" width="0.162" height="0.643"/>
		<rect x="12.706" y="1.064" width="0.162" height="0.643"/>
		<rect x="12.706" y="22.895" width="0.162" height="0.644"/>
		<polygon points="12.868,2.548 13.479,2.548 13.479,2.387 12.868,2.387 12.868,2.351 12.706,2.351 12.706,2.994 12.868,2.994 		"/>
		<rect x="12.706" y="3.635" width="0.162" height="0.643"/>
		<rect x="12.706" y="13.906" width="0.162" height="0.643"/>
		<rect x="12.706" y="11.339" width="0.162" height="0.641"/>
		<rect x="12.706" y="12.621" width="0.162" height="0.646"/>
		<rect x="12.706" y="21.609" width="0.162" height="0.643"/>
		<rect x="12.706" y="25.428" width="0.162" height="0.32"/>
		<rect x="18.643" y="0.581" width="0.162" height="0.655"/>
		<rect x="18.643" y="22.844" width="0.162" height="0.656"/>
		<rect x="18.643" y="21.534" width="0.162" height="0.654"/>
		<rect x="18.643" y="24.154" width="0.162" height="0.657"/>
		<rect x="18.643" y="16.297" width="0.162" height="0.653"/>
		<rect x="18.643" y="17.605" width="0.162" height="0.654"/>
		<rect x="18.643" y="18.914" width="0.162" height="0.654"/>
		<rect x="18.643" y="14.986" width="0.162" height="0.654"/>
		<rect x="18.643" y="20.225" width="0.162" height="0.652"/>
		<rect x="18.643" y="7.131" width="0.162" height="0.654"/>
		<rect x="18.643" y="3.201" width="0.162" height="0.656"/>
		<rect x="18.643" y="4.512" width="0.162" height="0.655"/>
		<rect x="18.643" y="5.822" width="0.162" height="0.654"/>
		<rect x="18.643" y="8.44" width="0.162" height="0.656"/>
		<rect x="18.643" y="13.677" width="0.162" height="0.655"/>
		<polygon points="18.643,13.024 18.805,13.024 18.805,12.731 20.122,12.731 20.122,10.099 18.805,10.099 18.805,9.751 
			18.643,9.751 18.643,10.099 17.488,10.099 17.488,12.731 18.643,12.731 		"/>
		<rect x="18.643" y="25.428" width="0.162" height="0.32"/>
		<polygon points="24.958,2.787 25.119,2.787 25.119,2.548 25.229,2.548 25.229,2.387 25.119,2.387 25.119,2.133 24.958,2.133 
			24.958,2.387 24.575,2.387 24.575,2.548 24.958,2.548 		"/>
		<rect x="24.958" y="3.439" width="0.161" height="0.654"/>
		<rect x="24.958" y="0.825" width="0.161" height="0.655"/>
		<rect x="24.958" y="6.049" width="0.161" height="0.654"/>
		<rect x="24.958" y="4.746" width="0.161" height="0.652"/>
		<rect x="24.958" y="11.271" width="0.161" height="0.65"/>
		<rect x="24.958" y="13.88" width="0.161" height="0.653"/>
		<rect x="24.958" y="12.575" width="0.161" height="0.654"/>
		<polygon points="25.119,20.406 24.958,20.406 24.958,20.953 24.427,20.953 24.427,21.113 25.075,21.113 25.075,21.058 
			25.119,21.058 		"/>
		<rect x="24.958" y="17.795" width="0.161" height="0.654"/>
		<rect x="24.958" y="21.711" width="0.161" height="0.651"/>
		<rect x="24.958" y="16.49" width="0.161" height="0.653"/>
		<rect x="24.958" y="19.1" width="0.161" height="0.652"/>
		<rect x="24.958" y="15.185" width="0.161" height="0.653"/>
		<rect x="24.958" y="23.018" width="0.161" height="0.652"/>
		<rect x="24.958" y="24.324" width="0.161" height="0.654"/>
		<polygon points="25.119,25.592 24.958,25.592 24.958,25.861 1.289,25.861 1.289,8.862 1.485,8.862 1.485,8.701 1.289,8.701 
			1.289,0.318 0,0.318 0,27.15 27.309,27.15 27.309,25.861 25.119,25.861 		"/>
		<rect x="4.911" y="13.304" width="2.632" height="2.633"/>
		<polygon points="5.254,22.269 5.254,21.113 5.626,21.113 5.626,20.953 5.254,20.953 5.254,19.635 2.621,19.635 2.621,20.953 
			2.379,20.953 2.379,21.113 2.621,21.113 2.621,22.269 		"/>
		<polygon points="11.39,10.099 12.706,10.099 12.706,10.697 12.868,10.697 12.868,10.099 14.021,10.099 14.021,8.862 14.581,8.862 
			14.581,8.701 14.021,8.701 14.021,7.466 11.39,7.466 11.39,8.701 11.309,8.701 11.309,8.862 11.39,8.862 		"/>
		<polygon points="23.643,10.179 24.958,10.179 24.958,10.619 25.119,10.619 25.119,10.179 26.271,10.179 26.271,8.862 
			26.369,8.862 26.369,8.701 26.271,8.701 26.271,7.545 25.119,7.545 25.119,7.356 24.958,7.356 24.958,7.545 23.643,7.545 
			23.643,8.701 23.091,8.701 23.091,8.862 23.643,8.862 		"/>
	</g>
</g>
<g>
</g>
<g>
</g>
<g>
</g>
<g>
</g>
<g>
</g>
<g>
</g>
<g>
</g>
<g>
</g>
<g>
</g>
<g>
</g>
<g>
</g>
<g>
</g>
<g>
</g>
<g>
</g>
<g>
</g>
</svg>
