<?xml version="1.0" encoding="utf-8"?>
<!-- Generator: Adobe Illustrator 19.2.1, SVG Export Plug-In . SVG Version: 6.00 Build 0)  -->
<svg version="1.1" id="Capa_1" xmlns="http://www.w3.org/2000/svg" xmlns:xlink="http://www.w3.org/1999/xlink" x="0px" y="0px"
	 viewBox="0 0 368.1 368.1" style="enable-background:new 0 0 368.1 368.1;" xml:space="preserve">
<g>
	<g>
		<g>
			<path d="M73.1,331.5L0.6,261.3l3.4-5.5c4.3-6.8,42.4-66.7,69.1-76.9c11.9-4.5,29.6-5.6,50.1-6.8c12.5-0.7,25.4-1.5,37.4-3.1
				c17.8-2.4,30.2-4.8,40.1-6.6c13-2.5,22.4-4.2,34.7-4.4c9.3-0.2,16.6,6,18.8,15.7c3,13.5-5.1,33-29.8,43.8c-1.6,0.7-4,1.5-7.4,2.5
				c0.1,0,0.2,0,0.2,0c12.4,0,25.8-1.5,36.5-6.4c8.5-3.8,17.3-8.8,25.8-13.6c17.6-9.9,34.2-19.2,49.3-20.1c7.7-0.5,19.1,1.7,26,9.4
				c4.3,4.8,6,11.2,4.8,17.8c-0.5,2.6-1.8,5.8-12.6,15.3c-7,6.1-16,13.2-25.5,20c-14.9,10.6-44.4,29.8-74.7,40.1
				c-10.6,3.6-15.1,4.3-32.1,5.3c-6.5,0.4-12,0.7-16.8,0.9c-24.4,1.4-31.7,1.8-67.6,1.8c-10.7,0-36.6,20.8-51.6,35.6L73.1,331.5z
				 M21.1,258.9l51.9,50.3c12.6-11.7,39.8-34.8,57.2-34.8c35.4,0,42-0.4,66.7-1.8c4.8-0.3,10.3-0.6,16.9-0.9
				c16.3-0.9,19.1-1.5,27.9-4.4c45.4-15.4,95.1-55,102.3-64.2c0-1.6-0.5-2.5-1.1-3.2c-2.3-2.6-7.9-4.3-13-4l0,0
				c-11.4,0.7-26.5,9.1-42.4,18.1c-8.8,4.9-17.9,10.1-27,14.2c-31.2,14.1-76,5.3-84.4,3.5h-35.1l32.6-15.2c4.4-2,13.3-4.6,26.3-8.2
				c7.4-2.1,15.8-4.4,18.1-5.4c17.6-7.7,21.9-19.6,20.6-25.8c-0.7-3.1-2.3-3.1-2.9-3.1c-10.9,0.2-19.3,1.8-32,4.2
				c-10.1,1.9-22.7,4.3-40.9,6.8c-12.6,1.7-25.8,2.5-38.6,3.2c-18.4,1.1-35.8,2.1-45.4,5.8C62.2,200.3,34.2,238.9,21.1,258.9z
				 M344.5,202.4L344.5,202.4L344.5,202.4z"/>
		</g>
		<g>
			<path d="M129.5,136.6c-3.5,0-6.8-1.5-9.1-4.2l0,0l-9.2-10.9c-2.1-2.5-3-5.5-2.8-8.7c0.3-3.2,1.7-6,4.2-8.1l64.5-54.5
				c4.2-3.6,10.5-3.8,14.9-0.4l38.8,29.7l21.8-25.2l0,0c-3.2-2.7-4.7-7.1-3.9-11.2c0.8-4.1,3.8-7.6,7.8-9l36-12.5
				c4-1.4,8.5-0.5,11.7,2.2c3.2,2.8,4.7,7.1,3.9,11.3l-7.2,37.4c-0.8,4.2-3.8,7.6-7.8,9c-4.1,1.4-8.5,0.5-11.7-2.2l0,0l-37.9,43.8
				c-4.1,4.8-11.3,5.5-16.2,1.6l-41.6-31.8l-48.3,40.9C135.1,135.6,132.4,136.6,129.5,136.6z M126.1,114.3l3.9,4.7l55.1-46.6
				l48.8,37.3l45.9-52.9l6.7,5.8l4.5-23.5l-22.6,7.8l6.7,5.8L233,101.4l-48.1-36.8L126.1,114.3z M231.3,112.6
				C231.3,112.6,231.3,112.6,231.3,112.6L231.3,112.6z M236.9,112L236.9,112C236.9,112,236.9,112,236.9,112z M187.4,62.4L187.4,62.4
				C187.4,62.4,187.4,62.4,187.4,62.4z M263,42.2L263,42.2C263,42.3,263,42.2,263,42.2z"/>
		</g>
	</g>
</g>
</svg>
