<?xml version="1.0" encoding="iso-8859-1"?>
<!-- Generator: Adobe Illustrator 18.0.0, SVG Export Plug-In . SVG Version: 6.00 Build 0)  -->
<!DOCTYPE svg PUBLIC "-//W3C//DTD SVG 1.1//EN" "http://www.w3.org/Graphics/SVG/1.1/DTD/svg11.dtd">
<svg version="1.1" id="Capa_1" xmlns="http://www.w3.org/2000/svg" xmlns:xlink="http://www.w3.org/1999/xlink" x="0px" y="0px"
	 viewBox="0 0 296.109 296.109" style="enable-background:new 0 0 296.109 296.109;" xml:space="preserve">
<g id="Prismaticos">
	<path d="M295.141,155.695c-1.901-10.396-6.452-19.732-12.87-27.372l-20.49-42.115c-0.554-1.139-1.455-2.073-2.572-2.669
		c-11.855-6.323-25.121-8.385-38.368-5.964c-11.089,2.027-21.073,7.01-29.227,14.508h-20.239
		c-2.474-4.603-6.252-8.405-10.838-10.906V70.749h-26v10.428c-4.587,2.501-8.365,6.303-10.839,10.906h-19.203
		c-8.154-7.498-18.138-12.481-29.226-14.508c-13.246-2.422-26.513-0.359-38.368,5.964c-1.117,0.596-2.018,1.53-2.572,2.669
		l-20.49,42.115c-6.418,7.64-10.969,16.976-12.87,27.372c-5.854,32.022,15.435,62.838,47.457,68.693
		c3.527,0.645,7.12,0.972,10.678,0.972c28.485,0,52.884-20.367,58.015-48.429c1.901-10.4,0.925-20.666-2.338-29.998l-0.11-1.202
		h8.656l0.857,12.452c-0.009,0.102-0.029,0.201-0.036,0.304l0.057,0.004l1.609,23.375c0.62,9.004,8.175,16.057,17.2,16.057h9.047
		c9.025,0,16.58-7.053,17.2-16.057l1.609-23.375l0.057-0.004c-0.007-0.103-0.027-0.202-0.036-0.304l0.857-12.452h9.692l-0.11,1.202
		c-3.262,9.332-4.239,19.598-2.338,29.998c5.13,28.06,29.529,48.427,58.014,48.429c0.001,0,0.002,0,0.004,0
		c3.556,0,7.147-0.327,10.674-0.972C279.706,218.533,300.995,187.718,295.141,155.695z M223,89.38
		c9.926-1.817,19.867-0.471,28.87,3.887l9.313,19.142c-7.384-3.307-15.535-5.142-24.057-5.142c-3.558,0-7.15,0.327-10.678,0.972
		c-12.204,2.232-22.841,8.096-31.019,16.263l1.944-21.271C204.252,95.97,213.073,91.194,223,89.38z M147.327,89.924h0.42
		c8.102,0,14.705,6.54,14.806,14.618l-2.639,38.351c-2.268-0.999-4.76-1.569-7.375-1.569h-10.004c-2.615,0-5.107,0.57-7.375,1.569
		l-2.639-38.351C132.622,96.464,139.225,89.924,147.327,89.924z M44.239,93.267c9.004-4.357,18.944-5.704,28.871-3.887
		c9.926,1.814,18.748,6.59,25.627,13.851l1.944,21.271c-8.178-8.167-18.815-14.032-31.019-16.263
		c-3.527-0.645-7.12-0.972-10.678-0.972c-8.523,0-16.673,1.835-24.057,5.142L44.239,93.267z M105.313,174.773
		c-4.088,22.358-23.522,38.587-46.21,38.587c-2.836,0-5.703-0.261-8.52-0.776c-25.514-4.665-42.475-29.217-37.811-54.73
		c4.088-22.358,23.522-38.587,46.21-38.587c2.836,0,5.703,0.261,8.52,0.776C93.017,124.708,109.978,149.26,105.313,174.773z
		 M113.574,133.732l-2.709-29.649h9.671c-0.005,0.216-0.016,0.43-0.016,0.647c0,0.138,0.005,0.274,0.014,0.412l1.967,28.59H113.574z
		 M152.061,185.924h-9.047c-2.743,0-5.04-2.144-5.228-4.881l-1.551-22.541c0.59-2.961,3.211-5.178,6.301-5.178h10.004
		c3.09,0,5.711,2.218,6.301,5.178l-1.551,22.541C157.1,183.78,154.804,185.924,152.061,185.924z M172.573,133.732l1.967-28.59
		c0.009-0.138,0.014-0.274,0.014-0.412c0-0.217-0.011-0.432-0.016-0.647h10.707l-2.709,29.649H172.573z M245.525,212.584
		c-2.817,0.516-5.682,0.776-8.516,0.776c-0.001,0-0.002,0-0.002,0c-22.689-0.002-42.124-16.229-46.211-38.587
		c-4.665-25.514,12.296-50.065,37.81-54.73c2.817-0.516,5.683-0.776,8.52-0.776c22.688,0,42.123,16.229,46.21,38.587
		C288,183.367,271.039,207.919,245.525,212.584z"/>
	<path d="M237.098,131.924c-2.072,0-4.164,0.19-6.217,0.565c-9.035,1.652-16.885,6.724-22.106,14.28
		c-5.22,7.557-7.186,16.693-5.534,25.729c2.988,16.343,17.2,28.204,33.792,28.205c0,0,0.001,0,0.001,0
		c2.071,0,4.163-0.19,6.215-0.565c9.035-1.652,16.886-6.724,22.106-14.28c5.221-7.557,7.186-16.694,5.534-25.729
		C267.902,143.786,253.69,131.924,237.098,131.924z M255.483,179.037c-3.398,4.919-8.509,8.221-14.391,9.296
		c-1.343,0.246-2.708,0.37-4.058,0.37h0c-10.795,0-20.042-7.724-21.988-18.363c-1.076-5.882,0.204-11.83,3.603-16.75
		c3.398-4.919,8.509-8.221,14.391-9.296c1.343-0.246,2.708-0.37,4.059-0.37c10.795,0,20.042,7.723,21.987,18.363
		C260.161,168.169,258.882,174.117,255.483,179.037z"/>
	<path d="M59.076,131.924c-2.072,0-4.164,0.19-6.217,0.565c-9.035,1.652-16.886,6.724-22.106,14.28
		c-5.221,7.557-7.186,16.694-5.534,25.729c2.988,16.343,17.199,28.204,33.792,28.205c0,0,0.001,0,0.001,0
		c2.072,0,4.163-0.19,6.216-0.565c18.65-3.41,31.05-21.357,27.64-40.009C89.879,143.786,75.668,131.924,59.076,131.924z
		 M63.07,188.333c-1.343,0.246-2.708,0.37-4.058,0.37h-0.001c-10.795,0-20.042-7.724-21.987-18.363
		c-1.076-5.882,0.204-11.83,3.603-16.75c3.398-4.919,8.509-8.221,14.391-9.296c1.343-0.246,2.708-0.37,4.059-0.37
		c10.795,0,20.042,7.723,21.987,18.363C83.284,174.429,75.211,186.113,63.07,188.333z"/>
</g>
<g>
</g>
<g>
</g>
<g>
</g>
<g>
</g>
<g>
</g>
<g>
</g>
<g>
</g>
<g>
</g>
<g>
</g>
<g>
</g>
<g>
</g>
<g>
</g>
<g>
</g>
<g>
</g>
<g>
</g>
</svg>
