<?xml version="1.0" encoding="iso-8859-1"?>
<!-- Generator: Adobe Illustrator 19.1.0, SVG Export Plug-In . SVG Version: 6.00 Build 0)  -->
<svg version="1.1" id="Capa_1" xmlns="http://www.w3.org/2000/svg" xmlns:xlink="http://www.w3.org/1999/xlink" x="0px" y="0px"
	 viewBox="0 0 194.665 194.665" style="enable-background:new 0 0 194.665 194.665;" xml:space="preserve">
<g>
	<g>
		<g>
			<g>
				<g>
					<g>
						<g>
							<g>
								<path d="M90.006,163.381c-41.976,0-76.125-34.149-76.125-76.125S48.03,11.131,90.006,11.131
									c41.975,0,76.125,34.149,76.125,76.125S131.981,163.381,90.006,163.381z M90.006,12.73
									c-41.094,0-74.526,33.432-74.526,74.525s33.432,74.525,74.526,74.525c41.093,0,74.525-33.432,74.525-74.525
									S131.1,12.73,90.006,12.73z"/>
							</g>
						</g>
					</g>
				</g>
			</g>
			<g>
				<g>
					<g>
						<g>
							<g>
								<g>
									<path d="M115.443,146.555c-0.184,0-0.365-0.063-0.511-0.184c-0.208-0.173-0.315-0.438-0.284-0.707
										c0.124-1.08-0.746-4.656-1.323-6.657c-2.257-6.039-0.765-13.681-0.598-14.482c0.103-1.729-1.494-4.707-2.157-5.773
										c-1.579-2.001-2.158-9.507-2.245-10.77c-0.287-0.867-0.865-1.511-1.766-1.965c-4.761-2.399-15.854,1.502-15.966,1.542
										c-0.127,0.045-0.267,0.056-0.4,0.035c-4.353-0.728-7.671-2.734-9.861-5.964c-4.485-6.613-2.717-16.03-2.507-17.052
										c0.273-10.115,15.074-19.844,15.706-20.254c0.038-0.025,0.079-0.047,0.121-0.064c8.277-3.544,11.846-0.084,12.539,0.732
										c4.406,2.443,13.733,2.206,13.826,2.2c0.171,0.006,0.328,0.042,0.466,0.133c1.92,1.275,13.069,13.195,13.181,13.315
										c2.379,2.549,5.594,5.837,6.585,6.849c1.448-0.226,2.311,0.292,2.79,0.801c2.27,2.404,0.245,9.18,0.006,9.944
										c-0.911,3.511-4.384,14.319-4.762,15.496c-0.251,2.839-2.79,12.54-2.899,12.957c-4.675,15.023-19.092,19.643-19.703,19.832
										C115.602,146.543,115.522,146.555,115.443,146.555z M102.361,103.651c1.84,0,3.569,0.256,4.918,0.937
										c1.322,0.666,2.198,1.68,2.603,3.012c0.018,0.059,0.029,0.118,0.033,0.18c0.214,3.229,0.925,8.799,1.922,9.994
										c0.023,0.027,0.044,0.057,0.063,0.087c0.269,0.429,2.622,4.259,2.418,6.838c-0.002,0.036-0.008,0.071-0.015,0.106
										c-0.017,0.077-1.647,7.843,0.54,13.7c0.148,0.507,1.123,3.931,1.361,6.116c3.312-1.328,13.921-6.423,17.641-18.374
										c0.017-0.067,2.662-10.174,2.849-12.732c0.004-0.063,0.017-0.126,0.037-0.187c0.038-0.119,3.833-11.905,4.775-15.533
										c0.802-2.581,1.6-7.104,0.368-8.407c-0.127-0.135-0.518-0.548-1.699-0.251c-0.272,0.067-0.565-0.013-0.764-0.215
										c-0.04-0.041-4.071-4.139-6.919-7.189c-4.279-4.584-11.054-11.625-12.708-12.935c-1.677,0.031-10.167,0.03-14.524-2.493
										c-0.099-0.058-0.185-0.136-0.251-0.229c-0.108-0.145-2.859-3.684-10.664-0.374C93.35,66.364,79.6,75.682,79.422,84.687
										c-0.001,0.052-0.007,0.104-0.018,0.153c-0.021,0.096-2.007,9.619,2.256,15.897c1.902,2.801,4.794,4.564,8.597,5.244
										C91.447,105.573,97.321,103.651,102.361,103.651z"/>
								</g>
							</g>
						</g>
					</g>
				</g>
				<g>
					<g>
						<g>
							<g>
								<g>
									<path d="M164.196,75.742c-0.343,0-0.66-0.222-0.765-0.567c-2.219-7.309-6.62-19.02-9.329-20.545
										c-0.753,0.439-2.45,1.297-3.81,1.084c-0.632-0.105-1.722-0.649-3.595-1.604c-1.277-0.65-3.476-1.771-4.54-2.079
										c0.264,1.102,1.03,3.445,1.721,5.56c3.468,10.61,4.438,14.557,2.973,15.565c-0.589,0.406-1.339,0.244-2.232-0.479
										l-20.247-18.592c-0.167-0.153-0.261-0.37-0.259-0.597s0.101-0.442,0.271-0.593c1.238-1.093,3.541-3.732,2.752-4.915
										c-0.485-0.717-1.335-0.486-3.155,0.215c-1.103,0.425-2.243,0.863-3.398,0.863c-0.831,0-1.84,0.255-2.816,0.501
										c-2,0.505-4.267,1.077-5.523-0.584c-0.448-0.593-0.847-0.925-1.152-0.96c-0.409-0.05-0.978,0.387-1.547,0.858
										c-3.489,2.866-4.471,2.517-4.84,2.386c-0.382-0.135-0.659-0.441-0.77-0.847c-0.268-0.18-1.199-0.324-1.766-0.413
										c-1.126-0.175-2.284-0.355-2.812-1.019c-0.907,0.313-3.121,1.595-4.646,2.477c-3.334,1.93-5.003,2.838-5.9,2.838
										c-0.383,0-0.972,0.06-1.596,0.123c-2.372,0.244-5.062,0.515-5.85-1.043c-0.676-1.343-2.466-6.672-0.567-8.547
										c0.912-0.905,2.901-0.924,5.008-0.942c0.973-0.009,2.395-0.022,2.909-0.204l-0.049-0.261
										c-0.602-3.146-0.985-5.808,0.414-6.519c0.283-0.194,1.117-1.513,1.726-2.475c1.665-2.632,2.942-4.532,4.227-5.012
										c1.075-0.405,2.603-0.055,4.219,0.318c0.906,0.209,2.55,0.584,2.98,0.387c0.082-2.219-0.118-4.433-0.443-4.817
										c-1.19-0.87,0.078-2.736,2.423-5.956c0.526-0.722,1.112-1.527,1.345-1.937c-0.766-1.139-6.398-4.234-8.183-4.234
										c-0.442,0-0.8-0.358-0.8-0.8s0.358-0.8,0.8-0.8c2.199,0,8.352,3.225,9.541,5.001c0.374,0.558,0.319,1,0.207,1.272
										c-0.188,0.468-0.71,1.195-1.616,2.439c-0.772,1.06-2.33,3.198-2.524,3.957c0.924,1.108,0.927,4.305,0.838,6.195
										c-0.005,0.098-0.027,0.193-0.066,0.283c-0.668,1.532-2.799,1.041-4.861,0.567c-1.189-0.273-2.671-0.615-3.299-0.379
										c-0.88,0.329-2.418,2.76-3.436,4.368c-1.13,1.787-1.749,2.734-2.35,3.044c-0.238,0.341-0.111,1.968,0.429,4.794
										l0.089,0.467c0.074,0.392-0.021,0.771-0.266,1.07c-0.623,0.759-1.949,0.808-4.239,0.828
										c-1.372,0.013-3.445,0.031-3.897,0.479c-0.948,0.937,0.023,5.008,0.87,6.688c0.292,0.576,3.174,0.284,4.26,0.173
										c0.694-0.07,1.293-0.131,1.758-0.131c0.615-0.028,3.313-1.59,5.099-2.623c4.242-2.454,5.416-3.027,6.206-2.664
										c0.256,0.116,0.442,0.329,0.523,0.593c0.265,0.182,1.204,0.328,1.776,0.417c1.261,0.196,2.56,0.398,2.968,1.279
										c0.479-0.153,1.559-0.757,3.143-2.058c0.818-0.679,1.708-1.33,2.75-1.215c0.782,0.091,1.496,0.595,2.245,1.585
										c0.573,0.758,1.898,0.49,3.855-0.003c1.071-0.27,2.178-0.549,3.208-0.549c0.858,0,1.857-0.385,2.823-0.757
										c1.695-0.652,3.804-1.464,5.059,0.386c1.431,2.147-1.09,5.105-2.379,6.399l19.578,17.979
										c0.106,0.085,0.195,0.147,0.267,0.192c0.247-1.888-2.308-9.703-3.572-13.571c-1.833-5.607-2.054-6.463-1.818-7.039
										c0.11-0.277,0.335-0.496,0.632-0.607c0.957-0.361,2.724,0.445,6.253,2.243c1.208,0.615,2.711,1.381,3.128,1.45
										c0.823,0.132,2.301-0.585,3.042-1.069c0.195-0.128,0.437-0.163,0.662-0.1c4.285,1.248,9.67,18.332,10.707,21.744
										c0.128,0.423-0.11,0.869-0.533,0.998C164.351,75.731,164.273,75.742,164.196,75.742z"/>
								</g>
							</g>
						</g>
					</g>
				</g>
				<g>
					<g>
						<g>
							<g>
								<g>
									<path d="M50.563,152.348c-0.27,0-0.533-0.136-0.684-0.383c-0.804-1.315-3.241-8.127-3.49-10.312
										c-0.241-2.126,0.957-2.654,2.115-3.165c0.419-0.185,0.895-0.395,1.392-0.703c0.9-0.556,0.477-1.904-0.171-3.608
										c-0.165-0.434-0.318-0.841-0.42-1.196c-0.443-1.534,0.369-4.46,1.155-7.29c0.189-0.683,0.372-1.339,0.522-1.934
										c0.535-2.127-1.953-4.312-4.147-6.239l-0.665-0.587c-1.869-1.661-4.886-2.905-7.088-3.814
										c-0.505-0.208-0.968-0.399-1.367-0.574c-0.398-0.176-0.771-0.326-1.12-0.467c-1.571-0.635-2.927-1.183-3.847-3.004
										c-0.792-1.562-0.493-4.094-0.253-6.127c0.086-0.725,0.167-1.409,0.167-1.847c0-0.576-1.496-1.937-2.486-2.837
										c-1.156-1.052-2.351-2.139-2.948-3.201c-1.121-2.001-4.208-5.926-6.609-8.4c-2.016-2.065-2.397-1.894-4.875-0.779
										c-0.402,0.182-0.876,0.003-1.058-0.401c-0.181-0.402-0.001-0.876,0.401-1.058c2.932-1.319,4.097-1.523,6.678,1.123
										c2.202,2.27,5.559,6.413,6.857,8.733c0.469,0.835,1.567,1.834,2.629,2.8c1.615,1.469,3.009,2.737,3.009,4.021
										c0,0.531-0.082,1.228-0.177,2.034c-0.204,1.724-0.483,4.085,0.091,5.218c0.649,1.285,1.541,1.646,3.019,2.242
										c0.364,0.146,0.751,0.304,1.165,0.486c0.388,0.17,0.839,0.355,1.333,0.56c2.308,0.952,5.469,2.256,7.542,4.099l0.656,0.579
										c2.413,2.119,5.416,4.757,4.643,7.834c-0.154,0.606-0.339,1.274-0.532,1.969c-0.623,2.245-1.476,5.319-1.159,6.42
										c0.092,0.318,0.231,0.683,0.378,1.07c0.642,1.69,1.611,4.244-0.483,5.537c-0.591,0.367-1.144,0.611-1.589,0.807
										c-1.083,0.479-1.279,0.564-1.17,1.521c0.237,2.08,2.645,8.643,3.265,9.659c0.23,0.377,0.111,0.869-0.266,1.1
										C50.849,152.311,50.705,152.348,50.563,152.348z"/>
								</g>
							</g>
						</g>
					</g>
				</g>
			</g>
		</g>
		<path d="M88.841,178.682c-10.375,0-20.586-1.745-30.414-5.194c-0.206-0.072-0.373-0.226-0.463-0.424
			c-0.09-0.198-0.095-0.425-0.015-0.628l5.214-13.058c0.164-0.41,0.629-0.61,1.04-0.446c0.41,0.164,0.61,0.63,0.446,1.04
			l-4.904,12.278c10.065,3.431,20.53,5.048,31.12,4.81l8.205-0.551c32.766-3.739,60.887-25.002,73.351-55.488
			c0.623-1.532,1.162-2.954,1.65-4.345c13.64-38.855-0.689-81.991-34.847-104.897h0c-0.027-0.017-0.052-0.034-0.069-0.047
			c-1.32-0.883-2.553-1.664-3.76-2.381c-0.016-0.01-0.032-0.02-0.049-0.031c-1.125-0.675-2.336-1.358-3.592-2.027l-0.307-0.18
			c-1.098-0.583-2.292-1.181-3.649-1.825l-0.422-0.213c-0.988-0.465-2.093-0.949-3.477-1.527c-0.135-0.054-0.276-0.118-0.42-0.184
			c-0.106-0.048-0.212-0.097-0.325-0.144c-1.099-0.445-2.225-0.865-3.361-1.282c-0.098-0.034-0.2-0.072-0.304-0.111l-4.939,12.594
			c-0.161,0.411-0.626,0.612-1.037,0.453c-0.412-0.162-0.614-0.626-0.453-1.037l5.227-13.328c0.079-0.201,0.236-0.362,0.435-0.445
			c0.199-0.085,0.424-0.082,0.623,0.001c0.18,0.062,0.346,0.125,0.511,0.189c0.159,0.062,0.317,0.123,0.476,0.178
			c1.165,0.428,2.308,0.854,3.428,1.309c0.135,0.056,0.26,0.112,0.384,0.169c0.119,0.055,0.236,0.108,0.358,0.157
			c1.418,0.592,2.543,1.086,3.553,1.561c0.085,0.04,0.172,0.084,0.26,0.13l0.176,0.089c1.372,0.652,2.587,1.261,3.708,1.856
			c0.073,0.039,0.142,0.08,0.211,0.121l0.112,0.066c1.273,0.679,2.516,1.381,3.679,2.079c0.026,0.015,0.052,0.033,0.077,0.052
			c1.255,0.744,2.469,1.516,3.773,2.388c34.826,23.355,49.41,67.255,35.528,106.798c-0.496,1.415-1.045,2.861-1.678,4.419
			c-12.686,31.028-41.305,52.669-74.688,56.478l-8.277,0.556C90.238,178.674,89.539,178.682,88.841,178.682z"/>
	</g>
	<path d="M91.612,194.665c-0.442,0-0.8-0.358-0.8-0.8v-28.742c0-0.441,0.358-0.8,0.8-0.8s0.8,0.358,0.8,0.8v28.742
		C92.412,194.307,92.054,194.665,91.612,194.665z"/>
	<path d="M109.081,194.665H74.139c-0.442,0-0.8-0.358-0.8-0.8s0.358-0.8,0.8-0.8h34.942c0.442,0,0.8,0.358,0.8,0.8
		S109.523,194.665,109.081,194.665z"/>
</g>
<g>
</g>
<g>
</g>
<g>
</g>
<g>
</g>
<g>
</g>
<g>
</g>
<g>
</g>
<g>
</g>
<g>
</g>
<g>
</g>
<g>
</g>
<g>
</g>
<g>
</g>
<g>
</g>
<g>
</g>
</svg>
